<svg id="Laag_1" data-name="Laag 1" xmlns="http://www.w3.org/2000/svg" viewBox="0 0 92.68 130.45"><defs><style>.cls-1{fill:#67c7c5;}.cls-2{fill:#faffff;}.cls-3{opacity:0.4;}.cls-4{fill:#fff;}</style></defs><title>adres_blue</title><path class="cls-1" d="M129.17,76.81c0,25.59-46.34,84.11-46.34,84.11S36.49,102.4,36.49,76.81a46.34,46.34,0,0,1,92.68,0Z" transform="translate(-36.49 -30.47)"/><path class="cls-2" d="M114.33,76.81a31.5,31.5,0,1,1-31.5-31.5A31.5,31.5,0,0,1,114.33,76.81Z" transform="translate(-36.49 -30.47)"/><g class="cls-3"><path class="cls-4" d="M82.83,30.47h0A46.34,46.34,0,0,0,36.49,76.81c0,25.59,46.34,84.11,46.34,84.11h0Z" transform="translate(-36.49 -30.47)"/><path class="cls-4" d="M82.83,45.31h0a31.5,31.5,0,1,0,0,63h0Z" transform="translate(-36.49 -30.47)"/></g></svg>