<?xml version="1.0" encoding="utf-8"?>
<!-- Generator: Adobe Illustrator 22.0.1, SVG Export Plug-In . SVG Version: 6.00 Build 0)  -->
<svg version="1.1" id="Laag_1" xmlns="http://www.w3.org/2000/svg" xmlns:xlink="http://www.w3.org/1999/xlink" x="0px" y="0px"
	 viewBox="0 0 31 31" style="enable-background:new 0 0 31 31;" xml:space="preserve">
<style type="text/css">
	.st0{fill:none;stroke:#FFFFFF;stroke-width:0.75;stroke-miterlimit:10;}
	.st1{fill-rule:evenodd;clip-rule:evenodd;fill:none;stroke:#FFFFFF;stroke-width:0.75;stroke-miterlimit:10;}
</style>
<g>
	<rect x="0.9" y="1.2" class="st0" width="28.9" height="28.9"/>
	<path class="st1" d="M17.8,10.5c0.5,0,1,0,1.5,0c0.1,0,0.1,0,0.2,0V7.9c-0.3,0-0.5-0.1-0.8-0.1c-0.5,0-1,0-1.5,0
		c-0.8,0-1.5,0.2-2.1,0.7c-0.7,0.5-1.1,1.2-1.3,2.1c-0.1,0.4-0.1,0.7-0.1,1.1c0,0.6,0,1.1,0,1.7v0.2h-2.4v2.8h2.4v7.1h2.9v-7.1H19
		c0.1-0.9,0.2-1.9,0.4-2.8c-0.2,0-0.4,0-0.5,0c-0.7,0-2.2,0-2.2,0s0-1.4,0-2C16.6,10.7,17.1,10.5,17.8,10.5z"/>
</g>
</svg>
