<?xml version="1.0" encoding="utf-8"?>
<!-- Generator: Adobe Illustrator 22.0.1, SVG Export Plug-In . SVG Version: 6.00 Build 0)  -->
<svg version="1.1" id="Laag_1" xmlns="http://www.w3.org/2000/svg" xmlns:xlink="http://www.w3.org/1999/xlink" x="0px" y="0px"
	 viewBox="0 0 33.3 32.9" style="enable-background:new 0 0 33.3 32.9;" xml:space="preserve">
<style type="text/css">
	.st0{fill:#67C7C5;stroke:#FFFFFF;stroke-width:0.75;stroke-miterlimit:10;}
	.st1{fill-rule:evenodd;clip-rule:evenodd;fill:#67C7C5;stroke:#FFFFFF;stroke-width:0.75;stroke-miterlimit:10;}
</style>
<g>
	<rect x="2.6" y="2.1" class="st0" width="28.9" height="28.9"/>
	<path class="st1" d="M21.9,9.5h-9.8c-1.2,0-2.2,1-2.2,2.2v9.8c0,1.2,1,2.2,2.2,2.2h9.8c1.2,0,2.2-1,2.2-2.2v-9.8
		C24.2,10.4,23.2,9.5,21.9,9.5z M20.1,11.4c0-0.2,0.2-0.4,0.4-0.4h1.7c0.2,0,0.4,0.2,0.4,0.4v1.7c0,0.2-0.2,0.4-0.4,0.4h-1.7
		c-0.2,0-0.4-0.2-0.4-0.4V11.4z M14.4,15.5c0.4-1,1.4-1.8,2.6-1.8c1.2,0,2.2,0.7,2.6,1.8c0.1,0.3,0.2,0.7,0.2,1
		c0,1.6-1.3,2.8-2.8,2.8c-1.6,0-2.8-1.3-2.8-2.8C14.2,16.2,14.3,15.9,14.4,15.5z M22.6,21.5c0,0.4-0.3,0.7-0.7,0.7h-9.8
		c-0.4,0-0.7-0.3-0.7-0.7v-5.9h1.4c-0.1,0.3-0.1,0.7-0.1,1c0,2.4,1.9,4.3,4.3,4.3c2.4,0,4.3-1.9,4.3-4.3c0-0.4,0-0.7-0.1-1h1.4V21.5
		z"/>
</g>
</svg>
