<svg id="Laag_1" data-name="Laag 1" xmlns="http://www.w3.org/2000/svg" viewBox="0 0 62.99 111.24"><defs><style>.cls-1{fill:#67c7c5;}</style></defs><title>smartphone_blue</title><path class="cls-1" d="M79.51,29.65H32.7a8.11,8.11,0,0,0-8.09,8.1V132.8a8.1,8.1,0,0,0,8.09,8.1H79.51a8.1,8.1,0,0,0,8.1-8.1V37.75a8.11,8.11,0,0,0-8.1-8.1m-5.34,5.08A2.08,2.08,0,1,1,72.1,36.8a2.08,2.08,0,0,1,2.07-2.07m-28.91.79H67V37.9H45.26ZM56.11,136a5.43,5.43,0,1,1,5.42-5.42A5.43,5.43,0,0,1,56.11,136m25.44-16.22H30.68V43.34H81.55Z" transform="translate(-24.61 -29.65)"/></svg>